<svg version="1.1" id="Layer_1" xmlns="http://www.w3.org/2000/svg" xmlns:xlink="http://www.w3.org/1999/xlink" x="0px" y="0px"
	 width="100%" viewBox="0 0 5004 421" enable-background="new 0 0 5004 421" xml:space="preserve">
<path fill="#FFFFFF" opacity="1.000000" stroke="none" 
	d="
M3804.000000,422.000000 
	C2536.000000,422.000000 1268.500000,422.000000 1.000000,422.000000 
	C1.000000,281.666656 1.000000,141.333328 1.000000,1.000000 
	C1669.000000,1.000000 3337.000000,1.000000 5005.000000,1.000000 
	C5005.000000,141.333328 5005.000000,281.666656 5005.000000,422.000000 
	C4604.833496,422.000000 4204.666504,422.000000 3804.000000,422.000000 
M5002.124023,3.220558 
	C4997.459473,3.146932 4992.795410,3.008801 4988.130859,3.008775 
	C3329.221680,2.999497 1670.312744,2.999679 11.403646,2.999685 
	C9.903728,2.999685 8.402100,2.955529 6.904419,3.013432 
	C5.643037,3.062200 4.386244,3.229645 3.219470,3.336154 
	C3.219470,142.338211 3.219470,280.943848 3.219470,419.711914 
	C7.216408,419.711914 10.999364,419.711914 15.733837,419.977661 
	C16.900284,419.985107 18.066729,419.999054 19.233175,419.999054 
	C1678.755005,420.000000 3338.276855,420.000000 4997.798828,420.000000 
	C4999.416016,420.000000 5001.032715,420.000000 5003.000000,420.000000 
	C5003.000000,418.276031 5003.000000,416.982727 5003.000000,415.689423 
	C5003.000000,279.867950 5003.001465,144.046448 5002.987305,8.224972 
	C5002.986816,6.739741 5002.789551,5.254531 5002.124023,3.220558 
z"/>
<path fill="#0077B6" opacity="1.000000" stroke="none" 
	d="
M14.782320,419.711914 
	C10.999364,419.711914 7.216408,419.711914 3.219470,419.711914 
	C3.219470,280.943848 3.219470,142.338211 3.219470,3.336154 
	C4.386244,3.229645 5.643037,3.062200 6.904419,3.013432 
	C8.402100,2.955529 9.903728,2.999685 11.403646,2.999685 
	C1670.312744,2.999679 3329.221680,2.999497 4988.130859,3.008775 
	C4992.795410,3.008801 4997.459473,3.146932 5001.974609,3.577950 
	C4995.876953,4.296516 4989.925293,4.607182 4983.980957,5.030697 
	C4975.092285,5.664030 4966.204102,6.319494 4957.324707,7.068535 
	C4942.214844,8.343120 4927.115234,9.731724 4912.005371,11.006002 
	C4903.125977,11.754824 4894.228516,12.295579 4885.351562,13.071801 
	C4871.073242,14.320351 4856.810547,15.751699 4842.530273,16.979523 
	C4833.153809,17.785780 4823.751465,18.296473 4814.371582,19.070024 
	C4799.085938,20.330627 4783.811523,21.723915 4768.528320,23.010040 
	C4759.810059,23.743706 4751.079590,24.330561 4742.361328,25.064167 
	C4727.078125,26.350109 4711.801758,27.723957 4696.518555,29.010082 
	C4687.800781,29.743690 4679.069336,30.326771 4670.352051,31.065823 
	C4655.234863,32.347389 4640.126465,33.731201 4625.008789,35.005962 
	C4616.125000,35.755066 4607.226074,36.319275 4598.342285,37.068283 
	C4583.224609,38.342926 4568.116699,39.731293 4552.999023,41.006027 
	C4544.115234,41.755127 4535.216309,42.319996 4526.332520,43.068977 
	C4511.214844,44.343555 4496.106934,45.731411 4480.989258,47.006111 
	C4472.105469,47.755154 4463.206543,48.320686 4454.322754,49.069633 
	C4439.205078,50.344151 4424.097168,51.731552 4408.979492,53.006191 
	C4400.095703,53.755199 4391.196777,54.321377 4382.312988,55.070297 
	C4367.195312,56.344753 4352.087402,57.731670 4336.969727,59.006279 
	C4328.086426,59.755230 4319.187012,60.322090 4310.303711,61.070953 
	C4295.186035,62.345345 4280.077637,63.731747 4264.959961,65.006355 
	C4256.077148,65.755310 4247.178223,66.323135 4238.295410,67.072090 
	C4223.180176,68.346443 4208.074707,69.732513 4192.959473,71.006844 
	C4184.077148,71.755707 4175.178711,72.323120 4166.296387,73.071953 
	C4151.181152,74.346306 4136.075684,75.732506 4120.960449,77.006889 
	C4112.078125,77.755760 4103.179688,78.323112 4094.297363,79.071976 
	C4079.182373,80.346298 4064.076172,81.732498 4048.961182,83.006851 
	C4040.078613,83.755722 4031.180908,84.322998 4022.298340,85.071861 
	C4007.183350,86.346222 3992.077393,87.732468 3976.962402,89.006828 
	C3968.079834,89.755692 3959.182129,90.322983 3950.299561,91.071846 
	C3935.184570,92.346230 3920.078369,93.732483 3904.963379,95.006813 
	C3896.080811,95.755676 3887.183105,96.322929 3878.300537,97.071793 
	C3863.185547,98.346184 3848.079346,99.732483 3832.964355,101.006813 
	C3824.081787,101.755646 3815.184082,102.322784 3806.301514,103.071678 
	C3791.186523,104.346062 3776.080322,105.732460 3760.965332,107.006790 
	C3752.082764,107.755653 3743.185059,108.322754 3734.302490,109.071648 
	C3719.187500,110.346039 3704.081543,111.732460 3688.966553,113.006844 
	C3680.083984,113.755707 3671.186279,114.322510 3662.303955,115.071465 
	C3647.192139,116.345673 3632.089600,117.732269 3616.977783,119.006416 
	C3608.097168,119.755188 3599.200684,120.321297 3590.320068,121.070251 
	C3575.208252,122.344742 3560.105957,123.732101 3544.994141,125.006348 
	C3536.113525,125.755173 3527.217041,126.320015 3518.336426,127.069023 
	C3503.224365,128.343582 3488.122314,129.731873 3473.010254,131.006241 
	C3464.129639,131.755142 3455.233154,132.318832 3446.352539,133.067917 
	C3431.240723,134.342590 3416.138428,135.731720 3401.026611,137.006180 
	C3392.145996,137.755112 3383.248291,138.303833 3374.369385,139.069885 
	C3359.756104,140.330673 3345.156982,141.755066 3330.541748,142.993652 
	C3321.165283,143.788300 3311.762451,144.279343 3302.385986,145.074173 
	C3287.770996,146.312973 3273.173096,147.754669 3258.558105,148.993317 
	C3249.181641,149.788025 3239.778809,150.278061 3230.402344,151.072906 
	C3215.787109,152.311813 3201.189453,153.754242 3186.574219,154.992981 
	C3177.197754,155.787720 3167.794922,156.276779 3158.418457,157.071701 
	C3143.803467,158.310623 3129.205566,159.754120 3114.590576,160.992645 
	C3105.214111,161.787216 3095.812988,162.291748 3086.434326,163.064316 
	C3071.156494,164.322845 3055.890137,165.721405 3040.614502,167.007492 
	C3031.900391,167.741165 3023.171631,168.298859 3014.460205,169.060501 
	C3000.015869,170.323380 2985.586182,171.757111 2971.138916,172.982986 
	C2961.597900,173.792542 2952.029785,174.279282 2942.486328,175.061874 
	C2927.207764,176.314697 2911.942383,177.721039 2896.666504,179.007523 
	C2887.952637,179.741379 2879.222900,180.290512 2870.511963,181.057510 
	C2856.233887,182.314651 2841.972412,183.761505 2827.690674,184.974243 
	C2817.984131,185.798477 2808.248291,186.272110 2798.538086,187.058197 
	C2783.093018,188.308517 2767.660156,189.709152 2752.218750,191.006012 
	C2743.503906,191.737930 2734.777588,192.333740 2726.064941,193.089767 
	C2711.454834,194.357529 2696.856445,195.760544 2682.243652,196.997543 
	C2672.867432,197.791245 2663.466064,198.284500 2654.092041,199.099762 
	C2640.144043,200.312836 2626.218506,201.783447 2612.268311,202.968414 
	C2602.396240,203.806992 2592.486572,204.204117 2582.616943,205.064789 
	C2565.057861,206.596024 2547.519287,208.362473 2529.966553,209.966171 
	C2518.315430,211.030655 2506.656006,212.005539 2494.996826,212.980392 
	C2478.747314,214.339066 2462.494141,215.650909 2446.243896,217.000549 
	C2434.429199,217.981812 2422.617432,219.000305 2410.802979,219.986847 
	C2394.719238,221.329895 2378.633789,222.654022 2362.549561,223.994263 
	C2346.631348,225.320709 2330.714111,226.661423 2314.795898,227.987839 
	C2298.711670,229.328064 2282.626465,230.654144 2266.542236,231.994370 
	C2250.624023,233.320801 2234.712158,234.731735 2218.786621,235.967026 
	C2204.481445,237.076630 2190.161377,237.990067 2175.848877,239.007080 
	C2171.409424,239.322571 2166.968750,239.638657 2162.537354,240.049988 
	C2148.616211,241.342178 2134.708252,242.781754 2120.778320,243.965668 
	C2110.751221,244.817871 2100.688965,245.250412 2090.657227,246.052780 
	C2075.231689,247.286530 2059.820801,248.697388 2044.400269,249.993073 
	C2035.695801,250.724442 2026.979614,251.320160 2018.277466,252.075668 
	C2003.688110,253.342285 1989.110352,254.744446 1974.518555,255.979630 
	C1965.152710,256.772430 1955.761230,257.264282 1946.397339,258.076599 
	C1932.284180,259.300903 1918.191772,260.763794 1904.077759,261.978424 
	C1894.534912,262.799683 1884.963501,263.286407 1875.416870,264.069122 
	C1860.133179,265.322205 1844.861694,266.723236 1829.580688,268.009460 
	C1820.863770,268.743225 1812.132202,269.304932 1803.417847,270.065643 
	C1788.968140,271.327148 1774.532959,272.755066 1760.080444,273.980835 
	C1750.536377,274.790283 1740.965942,275.286255 1731.419312,276.068970 
	C1716.135620,277.322052 1700.864136,278.723206 1685.583130,280.009491 
	C1676.866211,280.743256 1668.134521,281.304718 1659.420166,282.065491 
	C1644.970581,283.326965 1630.535400,284.755035 1616.082886,285.980743 
	C1606.538818,286.790161 1596.968262,287.286041 1587.421631,288.068756 
	C1572.137817,289.321899 1556.866455,290.723267 1541.585449,292.009521 
	C1532.868530,292.743317 1524.136963,293.304626 1515.422607,294.065399 
	C1500.972900,295.326874 1486.537842,296.755066 1472.085205,297.980743 
	C1462.541138,298.790192 1452.970703,299.285919 1443.424072,300.068634 
	C1428.140259,301.321777 1412.868896,302.723175 1397.587891,304.009460 
	C1388.870972,304.743225 1380.139282,305.304138 1371.424927,306.065216 
	C1356.976196,307.327148 1342.541870,308.756744 1328.090210,309.982452 
	C1318.547974,310.791809 1308.978882,311.285004 1299.434082,312.067474 
	C1284.153687,313.320129 1268.885620,314.722229 1253.607910,316.008392 
	C1244.892700,316.742065 1236.162598,317.301697 1227.450073,318.062927 
	C1213.003784,319.325104 1198.571899,320.756042 1184.122681,321.981781 
	C1174.580444,322.791290 1165.011353,323.282410 1155.466553,324.065063 
	C1140.186157,325.318024 1124.918091,326.722015 1109.640381,328.008392 
	C1100.925293,328.742188 1092.194580,329.295105 1083.482666,330.061554 
	C1069.202515,331.317841 1054.938599,332.760315 1040.654907,333.972839 
	C1030.947021,334.796936 1021.209961,335.271851 1011.499084,336.064240 
	C996.218140,337.311127 980.950745,338.722321 965.672913,340.008148 
	C956.791748,340.755615 947.894775,341.318481 939.016724,342.099152 
	C924.902527,343.340210 910.805054,344.773926 896.687500,345.972443 
	C886.979736,346.796600 877.242798,347.274048 867.531433,348.060638 
	C852.084290,349.311829 836.649292,350.712067 821.205750,352.008820 
	C812.489929,352.740692 803.762451,353.336060 795.048828,354.091705 
	C780.437012,355.358887 765.836853,356.760925 751.222534,357.997803 
	C741.846558,358.791412 732.446777,359.303040 723.070801,360.096985 
	C708.458130,361.334320 693.861389,362.760498 679.248718,363.997528 
	C669.872803,364.791260 660.472839,365.300964 651.096924,366.095001 
	C636.484253,367.332520 621.887634,368.760132 607.274902,369.997345 
	C597.898987,370.791168 588.498901,371.298859 579.122986,372.092987 
	C564.510315,373.330688 549.913757,374.759796 535.301025,375.997101 
	C525.925232,376.791016 516.524963,377.296722 507.149139,378.090942 
	C492.536438,379.328766 477.940033,380.759460 463.327301,381.996887 
	C453.951477,382.790863 444.549408,383.277771 435.175751,384.093292 
	C421.227783,385.306763 407.302490,386.782349 393.352356,387.967651 
	C383.480560,388.806458 373.570404,389.197479 363.700897,390.058228 
	C346.141876,391.589630 328.606018,393.385498 311.050354,394.957794 
	C295.285919,396.369720 279.508484,397.637207 263.735657,398.954956 
	C247.631180,400.300415 231.524200,401.616119 215.420395,402.969604 
	C199.812103,404.281433 184.207642,405.638947 168.599304,406.950256 
	C152.487579,408.303864 136.372864,409.621979 120.260078,410.962891 
	C104.313057,412.289917 88.372116,413.694153 72.418633,414.938019 
	C58.091499,416.055023 43.746845,416.946716 29.418640,418.050964 
	C24.526255,418.427979 19.660334,419.148407 14.782320,419.711914 
z"/>
<path fill="#000000" opacity="1.000000" stroke="none" 
	d="
M15.258080,419.844788 
	C19.660334,419.148407 24.526255,418.427979 29.418640,418.050964 
	C43.746845,416.946716 58.091499,416.055023 72.418633,414.938019 
	C88.372116,413.694153 104.313057,412.289917 120.260078,410.962891 
	C136.372864,409.621979 152.487579,408.303864 168.599304,406.950256 
	C184.207642,405.638947 199.812103,404.281433 215.420395,402.969604 
	C231.524200,401.616119 247.631180,400.300415 263.735657,398.954956 
	C279.508484,397.637207 295.285919,396.369720 311.050354,394.957794 
	C328.606018,393.385498 346.141876,391.589630 363.700897,390.058228 
	C373.570404,389.197479 383.480560,388.806458 393.352356,387.967651 
	C407.302490,386.782349 421.227783,385.306763 435.175751,384.093292 
	C444.549408,383.277771 453.951477,382.790863 463.327301,381.996887 
	C477.940033,380.759460 492.536438,379.328766 507.149139,378.090942 
	C516.524963,377.296722 525.925232,376.791016 535.301025,375.997101 
	C549.913757,374.759796 564.510315,373.330688 579.122986,372.092987 
	C588.498901,371.298859 597.898987,370.791168 607.274902,369.997345 
	C621.887634,368.760132 636.484253,367.332520 651.096924,366.095001 
	C660.472839,365.300964 669.872803,364.791260 679.248718,363.997528 
	C693.861389,362.760498 708.458130,361.334320 723.070801,360.096985 
	C732.446777,359.303040 741.846558,358.791412 751.222534,357.997803 
	C765.836853,356.760925 780.437012,355.358887 795.048828,354.091705 
	C803.762451,353.336060 812.489929,352.740692 821.205750,352.008820 
	C836.649292,350.712067 852.084290,349.311829 867.531433,348.060638 
	C877.242798,347.274048 886.979736,346.796600 896.687500,345.972443 
	C910.805054,344.773926 924.902527,343.340210 939.016724,342.099152 
	C947.894775,341.318481 956.791748,340.755615 965.672913,340.008148 
	C980.950745,338.722321 996.218140,337.311127 1011.499084,336.064240 
	C1021.209961,335.271851 1030.947021,334.796936 1040.654907,333.972839 
	C1054.938599,332.760315 1069.202515,331.317841 1083.482666,330.061554 
	C1092.194580,329.295105 1100.925293,328.742188 1109.640381,328.008392 
	C1124.918091,326.722015 1140.186157,325.318024 1155.466553,324.065063 
	C1165.011353,323.282410 1174.580444,322.791290 1184.122681,321.981781 
	C1198.571899,320.756042 1213.003784,319.325104 1227.450073,318.062927 
	C1236.162598,317.301697 1244.892700,316.742065 1253.607910,316.008392 
	C1268.885620,314.722229 1284.153687,313.320129 1299.434082,312.067474 
	C1308.978882,311.285004 1318.547974,310.791809 1328.090210,309.982452 
	C1342.541870,308.756744 1356.976196,307.327148 1371.424927,306.065216 
	C1380.139282,305.304138 1388.870972,304.743225 1397.587891,304.009460 
	C1412.868896,302.723175 1428.140259,301.321777 1443.424072,300.068634 
	C1452.970703,299.285919 1462.541138,298.790192 1472.085205,297.980743 
	C1486.537842,296.755066 1500.972900,295.326874 1515.422607,294.065399 
	C1524.136963,293.304626 1532.868530,292.743317 1541.585449,292.009521 
	C1556.866455,290.723267 1572.137817,289.321899 1587.421631,288.068756 
	C1596.968262,287.286041 1606.538818,286.790161 1616.082886,285.980743 
	C1630.535400,284.755035 1644.970581,283.326965 1659.420166,282.065491 
	C1668.134521,281.304718 1676.866211,280.743256 1685.583130,280.009491 
	C1700.864136,278.723206 1716.135620,277.322052 1731.419312,276.068970 
	C1740.965942,275.286255 1750.536377,274.790283 1760.080444,273.980835 
	C1774.532959,272.755066 1788.968140,271.327148 1803.417847,270.065643 
	C1812.132202,269.304932 1820.863770,268.743225 1829.580688,268.009460 
	C1844.861694,266.723236 1860.133179,265.322205 1875.416870,264.069122 
	C1884.963501,263.286407 1894.534912,262.799683 1904.077759,261.978424 
	C1918.191772,260.763794 1932.284180,259.300903 1946.397339,258.076599 
	C1955.761230,257.264282 1965.152710,256.772430 1974.518555,255.979630 
	C1989.110352,254.744446 2003.688110,253.342285 2018.277466,252.075668 
	C2026.979614,251.320160 2035.695801,250.724442 2044.400269,249.993073 
	C2059.820801,248.697388 2075.231689,247.286530 2090.657227,246.052780 
	C2100.688965,245.250412 2110.751221,244.817871 2120.778320,243.965668 
	C2134.708252,242.781754 2148.616211,241.342178 2162.537354,240.049988 
	C2166.968750,239.638657 2171.409424,239.322571 2175.848877,239.007080 
	C2190.161377,237.990067 2204.481445,237.076630 2218.786621,235.967026 
	C2234.712158,234.731735 2250.624023,233.320801 2266.542236,231.994370 
	C2282.626465,230.654144 2298.711670,229.328064 2314.795898,227.987839 
	C2330.714111,226.661423 2346.631348,225.320709 2362.549561,223.994263 
	C2378.633789,222.654022 2394.719238,221.329895 2410.802979,219.986847 
	C2422.617432,219.000305 2434.429199,217.981812 2446.243896,217.000549 
	C2462.494141,215.650909 2478.747314,214.339066 2494.996826,212.980392 
	C2506.656006,212.005539 2518.315430,211.030655 2529.966553,209.966171 
	C2547.519287,208.362473 2565.057861,206.596024 2582.616943,205.064789 
	C2592.486572,204.204117 2602.396240,203.806992 2612.268311,202.968414 
	C2626.218506,201.783447 2640.144043,200.312836 2654.092041,199.099762 
	C2663.466064,198.284500 2672.867432,197.791245 2682.243652,196.997543 
	C2696.856445,195.760544 2711.454834,194.357529 2726.064941,193.089767 
	C2734.777588,192.333740 2743.503906,191.737930 2752.218750,191.006012 
	C2767.660156,189.709152 2783.093018,188.308517 2798.538086,187.058197 
	C2808.248291,186.272110 2817.984131,185.798477 2827.690674,184.974243 
	C2841.972412,183.761505 2856.233887,182.314651 2870.511963,181.057510 
	C2879.222900,180.290512 2887.952637,179.741379 2896.666504,179.007523 
	C2911.942383,177.721039 2927.207764,176.314697 2942.486328,175.061874 
	C2952.029785,174.279282 2961.597900,173.792542 2971.138916,172.982986 
	C2985.586182,171.757111 3000.015869,170.323380 3014.460205,169.060501 
	C3023.171631,168.298859 3031.900391,167.741165 3040.614502,167.007492 
	C3055.890137,165.721405 3071.156494,164.322845 3086.434326,163.064316 
	C3095.812988,162.291748 3105.214111,161.787216 3114.590576,160.992645 
	C3129.205566,159.754120 3143.803467,158.310623 3158.418457,157.071701 
	C3167.794922,156.276779 3177.197754,155.787720 3186.574219,154.992981 
	C3201.189453,153.754242 3215.787109,152.311813 3230.402344,151.072906 
	C3239.778809,150.278061 3249.181641,149.788025 3258.558105,148.993317 
	C3273.173096,147.754669 3287.770996,146.312973 3302.385986,145.074173 
	C3311.762451,144.279343 3321.165283,143.788300 3330.541748,142.993652 
	C3345.156982,141.755066 3359.756104,140.330673 3374.369385,139.069885 
	C3383.248291,138.303833 3392.145996,137.755112 3401.026611,137.006180 
	C3416.138428,135.731720 3431.240723,134.342590 3446.352539,133.067917 
	C3455.233154,132.318832 3464.129639,131.755142 3473.010254,131.006241 
	C3488.122314,129.731873 3503.224365,128.343582 3518.336426,127.069023 
	C3527.217041,126.320015 3536.113525,125.755173 3544.994141,125.006348 
	C3560.105957,123.732101 3575.208252,122.344742 3590.320068,121.070251 
	C3599.200684,120.321297 3608.097168,119.755188 3616.977783,119.006416 
	C3632.089600,117.732269 3647.192139,116.345673 3662.303955,115.071465 
	C3671.186279,114.322510 3680.083984,113.755707 3688.966553,113.006844 
	C3704.081543,111.732460 3719.187500,110.346039 3734.302490,109.071648 
	C3743.185059,108.322754 3752.082764,107.755653 3760.965332,107.006790 
	C3776.080322,105.732460 3791.186523,104.346062 3806.301514,103.071678 
	C3815.184082,102.322784 3824.081787,101.755646 3832.964355,101.006813 
	C3848.079346,99.732483 3863.185547,98.346184 3878.300537,97.071793 
	C3887.183105,96.322929 3896.080811,95.755676 3904.963379,95.006813 
	C3920.078369,93.732483 3935.184570,92.346230 3950.299561,91.071846 
	C3959.182129,90.322983 3968.079834,89.755692 3976.962402,89.006828 
	C3992.077393,87.732468 4007.183350,86.346222 4022.298340,85.071861 
	C4031.180908,84.322998 4040.078613,83.755722 4048.961182,83.006851 
	C4064.076172,81.732498 4079.182373,80.346298 4094.297363,79.071976 
	C4103.179688,78.323112 4112.078125,77.755760 4120.960449,77.006889 
	C4136.075684,75.732506 4151.181152,74.346306 4166.296387,73.071953 
	C4175.178711,72.323120 4184.077148,71.755707 4192.959473,71.006844 
	C4208.074707,69.732513 4223.180176,68.346443 4238.295410,67.072090 
	C4247.178223,66.323135 4256.077148,65.755310 4264.959961,65.006355 
	C4280.077637,63.731747 4295.186035,62.345345 4310.303711,61.070953 
	C4319.187012,60.322090 4328.086426,59.755230 4336.969727,59.006279 
	C4352.087402,57.731670 4367.195312,56.344753 4382.312988,55.070297 
	C4391.196777,54.321377 4400.095703,53.755199 4408.979492,53.006191 
	C4424.097168,51.731552 4439.205078,50.344151 4454.322754,49.069633 
	C4463.206543,48.320686 4472.105469,47.755154 4480.989258,47.006111 
	C4496.106934,45.731411 4511.214844,44.343555 4526.332520,43.068977 
	C4535.216309,42.319996 4544.115234,41.755127 4552.999023,41.006027 
	C4568.116699,39.731293 4583.224609,38.342926 4598.342285,37.068283 
	C4607.226074,36.319275 4616.125000,35.755066 4625.008789,35.005962 
	C4640.126465,33.731201 4655.234863,32.347389 4670.352051,31.065823 
	C4679.069336,30.326771 4687.800781,29.743690 4696.518555,29.010082 
	C4711.801758,27.723957 4727.078125,26.350109 4742.361328,25.064167 
	C4751.079590,24.330561 4759.810059,23.743706 4768.528320,23.010040 
	C4783.811523,21.723915 4799.085938,20.330627 4814.371582,19.070024 
	C4823.751465,18.296473 4833.153809,17.785780 4842.530273,16.979523 
	C4856.810547,15.751699 4871.073242,14.320351 4885.351562,13.071801 
	C4894.228516,12.295579 4903.125977,11.754824 4912.005371,11.006002 
	C4927.115234,9.731724 4942.214844,8.343120 4957.324707,7.068535 
	C4966.204102,6.319494 4975.092285,5.664030 4983.980957,5.030697 
	C4989.925293,4.607182 4995.876953,4.296516 5002.254883,3.852327 
	C5002.789551,5.254531 5002.986816,6.739741 5002.987305,8.224972 
	C5003.001465,144.046448 5003.000000,279.867950 5003.000000,415.689423 
	C5003.000000,416.982727 5003.000000,418.276031 5003.000000,420.000000 
	C5001.032715,420.000000 4999.416016,420.000000 4997.798828,420.000000 
	C3338.276855,420.000000 1678.755005,420.000000 19.233175,419.999054 
	C18.066729,419.999054 16.900284,419.985107 15.258080,419.844788 
z"/>
</svg>