<svg version="1.1" id="Layer_1" xmlns="http://www.w3.org/2000/svg" xmlns:xlink="http://www.w3.org/1999/xlink" x="0px" y="0px"
	 width="100%" viewBox="0 0 5004 254" enable-background="new 0 0 5004 254" xml:space="preserve">
<path fill="#FFFFFF" opacity="1.000000" stroke="none" 
	d="
M4828.000000,255.000000 
	C3218.666748,255.000000 1609.833374,255.000000 1.000000,255.000000 
	C1.000000,170.333328 1.000000,85.666664 1.000000,1.000000 
	C1669.000000,1.000000 3337.000000,1.000000 5005.000000,1.000000 
	C5005.000000,85.666664 5005.000000,170.333328 5005.000000,255.000000 
	C4946.166504,255.000000 4887.333496,255.000000 4828.000000,255.000000 
M1121.978516,253.009598 
	C1146.948242,252.946640 1171.918091,252.883682 1197.828003,252.975830 
	C1234.919800,252.924026 1272.011475,252.872223 1310.013184,252.958481 
	C1334.989380,252.921005 1359.965698,252.883545 1385.876953,252.989075 
	C1387.876831,252.992706 1389.876709,252.999542 1391.876587,252.999542 
	C1986.163818,253.000000 2580.451172,253.000000 3174.738281,253.000000 
	C3782.024414,253.000000 4389.310547,253.000000 4996.596680,253.000000 
	C4998.686035,253.000000 5000.775391,253.000000 5002.841309,253.000000 
	C5002.841309,224.872437 5002.841309,197.390823 5002.992188,168.994247 
	C5002.992188,113.740242 5002.992188,58.486229 5002.992188,3.276712 
	C3336.006104,3.276712 1669.675537,3.276712 3.000239,3.276712 
	C3.000239,5.350569 3.000238,7.151752 3.000239,8.952935 
	C3.000240,36.951439 2.979561,64.949959 3.006318,92.948433 
	C3.030841,118.609741 3.106560,144.270996 3.011634,170.874374 
	C3.011634,198.143951 3.011634,225.413544 3.011634,253.000000 
	C5.267776,253.000000 7.065887,253.000000 8.863998,253.000000 
	C377.770020,253.000000 746.676025,253.000214 1115.582031,252.993713 
	C1117.411377,252.993683 1119.240601,252.898346 1121.978516,253.009598 
z"/>
<path fill="#0077B6" opacity="1.000000" stroke="none" 
	d="
M1309.103271,252.820404 
	C1272.011475,252.872223 1234.919800,252.924026 1197.047119,252.641754 
	C1171.151367,252.223572 1146.036621,252.139450 1120.458496,252.033325 
	C1085.226318,251.341354 1050.455444,250.751480 1015.688965,249.973267 
	C992.581299,249.456039 969.476990,248.747284 946.375854,247.983917 
	C918.131653,247.050613 889.890686,246.013809 861.651550,244.935699 
	C847.375793,244.390686 833.106750,243.669418 818.835693,243.004623 
	C788.794861,241.605225 758.753357,240.220703 728.715088,238.767685 
	C716.107178,238.157822 703.501709,237.471146 690.904175,236.676285 
	C665.888794,235.097855 640.879272,233.426163 615.868164,231.780472 
	C605.430176,231.093674 594.989502,230.439514 584.558594,229.656921 
	C563.545654,228.080338 542.538818,226.422852 521.528992,224.804779 
	C507.792847,223.746872 494.048340,222.788589 480.321014,221.627167 
	C458.173157,219.753342 436.036804,217.743546 413.894684,215.801559 
	C401.661652,214.728653 389.420135,213.747940 377.194427,212.598083 
	C360.849976,211.060837 344.516815,209.403046 328.179443,207.790924 
	C314.147888,206.406326 300.110077,205.080795 286.087891,203.606720 
	C268.446838,201.752243 250.820633,199.756744 233.184662,197.853271 
	C219.827438,196.411606 206.455231,195.104050 193.107300,193.582260 
	C177.135254,191.761322 161.184036,189.758377 145.219940,187.866730 
	C130.071747,186.071747 114.909744,184.390762 99.769966,182.528381 
	C82.170967,180.363510 64.584923,178.091171 47.001896,175.799179 
	C32.381344,173.893341 17.773304,171.891556 3.159720,169.932281 
	C3.106560,144.270996 3.030841,118.609741 3.006318,92.948433 
	C2.979561,64.949959 3.000240,36.951439 3.000239,8.952935 
	C3.000238,7.151752 3.000239,5.350569 3.000239,3.276712 
	C1669.675537,3.276712 3336.006104,3.276712 5002.992188,3.276712 
	C5002.992188,58.486229 5002.992188,113.740242 5002.500488,169.426880 
	C4994.782227,168.879868 4987.564453,167.828445 4980.327637,166.933304 
	C4952.523926,163.494308 4924.715820,160.089539 4896.905762,156.702209 
	C4867.290039,153.094971 4837.685547,149.384018 4808.046875,145.974075 
	C4780.374023,142.790283 4752.671387,139.852631 4724.965332,136.971802 
	C4698.243652,134.193375 4671.510254,131.524277 4644.764160,128.993439 
	C4615.368164,126.211876 4585.958984,123.560074 4556.541992,121.007034 
	C4531.911621,118.869354 4507.265625,116.890427 4482.617676,114.961388 
	C4460.279297,113.213181 4437.934082,111.557594 4415.582520,109.988518 
	C4390.744141,108.244835 4365.899414,106.583870 4341.050293,105.001274 
	C4318.846191,103.587143 4296.635742,102.275009 4274.422363,101.018066 
	C4255.351562,99.938957 4236.275391,98.947548 4217.197266,98.015648 
	C4195.459473,96.953857 4173.717773,95.964188 4151.975098,95.012817 
	C4135.371094,94.286316 4118.764648,93.624695 4102.156250,93.013382 
	C4082.719727,92.297981 4063.281738,91.609329 4043.841064,91.016716 
	C4019.905518,90.287094 3995.967773,89.628296 3972.029053,89.016182 
	C3956.062256,88.607918 3940.092773,88.288734 3924.123291,88.011978 
	C3902.322510,87.634155 3880.520264,87.029869 3858.719238,87.057220 
	C3785.920654,87.148560 3713.121826,87.415962 3640.323730,87.751526 
	C3616.187744,87.862778 3592.053223,88.334534 3567.919434,88.737610 
	C3554.615234,88.959816 3541.313477,89.367485 3528.011475,89.716393 
	C3502.907715,90.374878 3477.802490,90.984245 3452.701660,91.742813 
	C3434.592529,92.290077 3416.489014,93.022629 3398.384766,93.714058 
	C3371.976807,94.722641 3345.567871,95.716484 3319.163818,96.822128 
	C3307.385254,97.315346 3295.618652,98.090080 3283.844482,98.693810 
	C3256.303223,100.105972 3228.759277,101.469170 3201.218994,102.898933 
	C3188.611572,103.553452 3176.002686,104.207161 3163.407715,105.057396 
	C3141.222900,106.554985 3119.049805,108.232002 3096.868164,109.778580 
	C3080.800293,110.898880 3064.718506,111.829483 3048.656738,113.025642 
	C3028.139404,114.553589 3007.635498,116.258507 2987.126709,117.897156 
	C2974.056152,118.941460 2960.980225,119.923759 2947.919434,121.078102 
	C2930.906006,122.581764 2913.906738,124.250496 2896.897705,125.805969 
	C2884.503418,126.939423 2872.094482,127.918968 2859.707031,129.120178 
	C2840.728027,130.960556 2821.762207,132.934799 2802.790283,134.848206 
	C2788.761963,136.263031 2774.726074,137.602844 2760.706787,139.100250 
	C2743.397217,140.949173 2726.102783,142.938522 2708.799316,144.844833 
	C2695.775391,146.279678 2682.735596,147.580795 2669.724121,149.118347 
	C2651.619873,151.257690 2633.538330,153.588684 2615.441162,155.788864 
	C2597.831055,157.929825 2580.201416,159.912888 2562.602539,162.141678 
	C2543.205078,164.598267 2523.837158,167.290955 2504.447998,169.815689 
	C2485.544434,172.277161 2466.629639,174.648285 2447.721436,177.073944 
	C2427.833008,179.625381 2407.960938,182.312073 2388.055420,184.721527 
	C2369.454346,186.973068 2350.814209,188.900940 2332.199463,191.040588 
	C2313.097900,193.236176 2294.020020,195.643585 2274.906006,197.723724 
	C2254.461182,199.948761 2233.984863,201.882782 2213.525391,203.975266 
	C2191.585693,206.219147 2169.661621,208.624130 2147.708740,210.727493 
	C2127.723145,212.642349 2107.706787,214.234802 2087.705811,215.991516 
	C2058.459229,218.560272 2029.222656,221.246658 1999.966309,223.696716 
	C1978.138428,225.524673 1956.290771,227.126343 1934.442993,228.704498 
	C1910.271484,230.450455 1886.093750,232.114090 1861.911377,233.703247 
	C1840.375122,235.118546 1818.833496,236.461044 1797.285889,237.693726 
	C1772.413208,239.116638 1747.534058,240.431427 1722.653076,241.704391 
	C1701.748657,242.773941 1680.841431,243.800446 1659.928711,244.693069 
	C1634.357056,245.784607 1608.780396,246.767792 1583.202393,247.701385 
	C1562.767212,248.447250 1542.329468,249.155807 1521.887939,249.688889 
	C1492.452393,250.456482 1463.014038,251.134613 1433.573730,251.684204 
	C1417.413696,251.985870 1401.247192,251.945526 1384.609985,252.023041 
	C1360.548096,252.002838 1336.959839,252.005478 1313.371704,252.068665 
	C1311.948242,252.072464 1310.526001,252.558655 1309.103271,252.820404 
z"/>
<path fill="#000000" opacity="1.000000" stroke="none" 
	d="
M1385.083618,252.059402 
	C1401.247192,251.945526 1417.413696,251.985870 1433.573730,251.684204 
	C1463.014038,251.134613 1492.452393,250.456482 1521.887939,249.688889 
	C1542.329468,249.155807 1562.767212,248.447250 1583.202393,247.701385 
	C1608.780396,246.767792 1634.357056,245.784607 1659.928711,244.693069 
	C1680.841431,243.800446 1701.748657,242.773941 1722.653076,241.704391 
	C1747.534058,240.431427 1772.413208,239.116638 1797.285889,237.693726 
	C1818.833496,236.461044 1840.375122,235.118546 1861.911377,233.703247 
	C1886.093750,232.114090 1910.271484,230.450455 1934.442993,228.704498 
	C1956.290771,227.126343 1978.138428,225.524673 1999.966309,223.696716 
	C2029.222656,221.246658 2058.459229,218.560272 2087.705811,215.991516 
	C2107.706787,214.234802 2127.723145,212.642349 2147.708740,210.727493 
	C2169.661621,208.624130 2191.585693,206.219147 2213.525391,203.975266 
	C2233.984863,201.882782 2254.461182,199.948761 2274.906006,197.723724 
	C2294.020020,195.643585 2313.097900,193.236176 2332.199463,191.040588 
	C2350.814209,188.900940 2369.454346,186.973068 2388.055420,184.721527 
	C2407.960938,182.312073 2427.833008,179.625381 2447.721436,177.073944 
	C2466.629639,174.648285 2485.544434,172.277161 2504.447998,169.815689 
	C2523.837158,167.290955 2543.205078,164.598267 2562.602539,162.141678 
	C2580.201416,159.912888 2597.831055,157.929825 2615.441162,155.788864 
	C2633.538330,153.588684 2651.619873,151.257690 2669.724121,149.118347 
	C2682.735596,147.580795 2695.775391,146.279678 2708.799316,144.844833 
	C2726.102783,142.938522 2743.397217,140.949173 2760.706787,139.100250 
	C2774.726074,137.602844 2788.761963,136.263031 2802.790283,134.848206 
	C2821.762207,132.934799 2840.728027,130.960556 2859.707031,129.120178 
	C2872.094482,127.918968 2884.503418,126.939423 2896.897705,125.805969 
	C2913.906738,124.250496 2930.906006,122.581764 2947.919434,121.078102 
	C2960.980225,119.923759 2974.056152,118.941460 2987.126709,117.897156 
	C3007.635498,116.258507 3028.139404,114.553589 3048.656738,113.025642 
	C3064.718506,111.829483 3080.800293,110.898880 3096.868164,109.778580 
	C3119.049805,108.232002 3141.222900,106.554985 3163.407715,105.057396 
	C3176.002686,104.207161 3188.611572,103.553452 3201.218994,102.898933 
	C3228.759277,101.469170 3256.303223,100.105972 3283.844482,98.693810 
	C3295.618652,98.090080 3307.385254,97.315346 3319.163818,96.822128 
	C3345.567871,95.716484 3371.976807,94.722641 3398.384766,93.714058 
	C3416.489014,93.022629 3434.592529,92.290077 3452.701660,91.742813 
	C3477.802490,90.984245 3502.907715,90.374878 3528.011475,89.716393 
	C3541.313477,89.367485 3554.615234,88.959816 3567.919434,88.737610 
	C3592.053223,88.334534 3616.187744,87.862778 3640.323730,87.751526 
	C3713.121826,87.415962 3785.920654,87.148560 3858.719238,87.057220 
	C3880.520264,87.029869 3902.322510,87.634155 3924.123291,88.011978 
	C3940.092773,88.288734 3956.062256,88.607918 3972.029053,89.016182 
	C3995.967773,89.628296 4019.905518,90.287094 4043.841064,91.016716 
	C4063.281738,91.609329 4082.719727,92.297981 4102.156250,93.013382 
	C4118.764648,93.624695 4135.371094,94.286316 4151.975098,95.012817 
	C4173.717773,95.964188 4195.459473,96.953857 4217.197266,98.015648 
	C4236.275391,98.947548 4255.351562,99.938957 4274.422363,101.018066 
	C4296.635742,102.275009 4318.846191,103.587143 4341.050293,105.001274 
	C4365.899414,106.583870 4390.744141,108.244835 4415.582520,109.988518 
	C4437.934082,111.557594 4460.279297,113.213181 4482.617676,114.961388 
	C4507.265625,116.890427 4531.911621,118.869354 4556.541992,121.007034 
	C4585.958984,123.560074 4615.368164,126.211876 4644.764160,128.993439 
	C4671.510254,131.524277 4698.243652,134.193375 4724.965332,136.971802 
	C4752.671387,139.852631 4780.374023,142.790283 4808.046875,145.974075 
	C4837.685547,149.384018 4867.290039,153.094971 4896.905762,156.702209 
	C4924.715820,160.089539 4952.523926,163.494308 4980.327637,166.933304 
	C4987.564453,167.828445 4994.782227,168.879868 5002.424805,169.884354 
	C5002.841309,197.390823 5002.841309,224.872437 5002.841309,253.000000 
	C5000.775391,253.000000 4998.686035,253.000000 4996.596680,253.000000 
	C4389.310547,253.000000 3782.024414,253.000000 3174.738281,253.000000 
	C2580.451172,253.000000 1986.163818,253.000000 1391.876587,252.999542 
	C1389.876709,252.999542 1387.876831,252.992706 1385.432861,252.718750 
	C1384.988647,252.448425 1385.083618,252.059402 1385.083618,252.059402 
z"/>
<path fill="#000000" opacity="1.000000" stroke="none" 
	d="
M3.085677,170.403320 
	C17.773304,171.891556 32.381344,173.893341 47.001896,175.799179 
	C64.584923,178.091171 82.170967,180.363510 99.769966,182.528381 
	C114.909744,184.390762 130.071747,186.071747 145.219940,187.866730 
	C161.184036,189.758377 177.135254,191.761322 193.107300,193.582260 
	C206.455231,195.104050 219.827438,196.411606 233.184662,197.853271 
	C250.820633,199.756744 268.446838,201.752243 286.087891,203.606720 
	C300.110077,205.080795 314.147888,206.406326 328.179443,207.790924 
	C344.516815,209.403046 360.849976,211.060837 377.194427,212.598083 
	C389.420135,213.747940 401.661652,214.728653 413.894684,215.801559 
	C436.036804,217.743546 458.173157,219.753342 480.321014,221.627167 
	C494.048340,222.788589 507.792847,223.746872 521.528992,224.804779 
	C542.538818,226.422852 563.545654,228.080338 584.558594,229.656921 
	C594.989502,230.439514 605.430176,231.093674 615.868164,231.780472 
	C640.879272,233.426163 665.888794,235.097855 690.904175,236.676285 
	C703.501709,237.471146 716.107178,238.157822 728.715088,238.767685 
	C758.753357,240.220703 788.794861,241.605225 818.835693,243.004623 
	C833.106750,243.669418 847.375793,244.390686 861.651550,244.935699 
	C889.890686,246.013809 918.131653,247.050613 946.375854,247.983917 
	C969.476990,248.747284 992.581299,249.456039 1015.688965,249.973267 
	C1050.455444,250.751480 1085.226318,251.341354 1120.508545,252.228912 
	C1121.021851,252.446518 1121.069946,252.847488 1121.069946,252.847504 
	C1119.240601,252.898346 1117.411377,252.993683 1115.582031,252.993713 
	C746.676025,253.000214 377.770020,253.000000 8.863998,253.000000 
	C7.065887,253.000000 5.267776,253.000000 3.011634,253.000000 
	C3.011634,225.413544 3.011634,198.143951 3.085677,170.403320 
z"/>
<path fill="#00537F" opacity="1.000000" stroke="none" 
	d="
M1121.524170,252.928543 
	C1121.069946,252.847488 1121.021851,252.446518 1120.971924,252.250931 
	C1146.036621,252.139450 1171.151367,252.223572 1196.576904,252.564209 
	C1171.918091,252.883682 1146.948242,252.946640 1121.524170,252.928543 
z"/>
<path fill="#00537F" opacity="1.000000" stroke="none" 
	d="
M1384.609985,252.023041 
	C1385.083618,252.059402 1384.988647,252.448425 1384.965332,252.647247 
	C1359.965698,252.883545 1334.989380,252.921005 1309.558228,252.889435 
	C1310.526001,252.558655 1311.948242,252.072464 1313.371704,252.068665 
	C1336.959839,252.005478 1360.548096,252.002838 1384.609985,252.023041 
z"/>
</svg>
